<svg width="45" height="44" xmlns="http://www.w3.org/2000/svg" fill="white">

 <g>
  <title>background</title>
  <rect fill="none" id="canvas_background" height="46" width="47" y="-1" x="-1"/>
 </g>
 <g>
  <title>Layer 1</title>
  <path id="svg_2" d="m40.141264,43.441264l-13.3,-3.7c-1.4,0.3 -2.9,0.4 -4.7,0.4c-12.7,0 -22,-8.4 -22,-20c0,-5.4 1.9,-10.1 5.6,-13.8c4.1,-4 10,-6.2 16.4,-6.2c12.7,0 22,8.4 22,20c0,4.3 -1.4,8.5 -4,11.8l0,11.5zm-13.3,-5.7l11.3,3.1l0,-9.5l0.2,-0.3c2.5,-3.1 3.8,-6.9 3.8,-10.9c0,-10.4 -8.4,-18 -20,-18c-6,0 -11.3,2 -15,5.6c-3.3,3.3 -5,7.6 -5,12.4c0,10.4 8.4,18 20,18c1.8,0 3.2,-0.1 4.5,-0.4l0.2,0z"/>
  <ellipse ry="19.516725" rx="21.895907" id="svg_5" cy="19.541823" cx="21.905205" fill-opacity="null" stroke-opacity="null" stroke-width="null" stroke="null" fill="null"/>
  <ellipse ry="4.981412" rx="6.802973" id="svg_11" cy="35.118028" cx="32.685872" fill-opacity="null" stroke-opacity="null" stroke-width="null" stroke="null" fill="null"/>
  <ellipse ry="2.416356" rx="2.788104" id="svg_12" cy="39.095722" cx="36.77509" fill-opacity="null" stroke-opacity="null" stroke-width="null" stroke="null" fill="null"/>
 </g>
</svg>