<svg width="14.999999999999998" height="14.999999999999998" xmlns="http://www.w3.org/2000/svg">

 <g>
  <title>background</title>
  <rect fill="none" id="canvas_background" height="402" width="582" y="-1" x="-1"/>
 </g>
 <g>
  <title>Layer 1</title>
  <path id="svg_1" d="m7.5,0c-4.136,0 -7.5,3.364 -7.5,7.5s3.364,7.5 7.5,7.5s7.5,-3.364 7.5,-7.5s-3.364,-7.5 -7.5,-7.5zm0,14c-3.584,0 -6.5,-2.916 -6.5,-6.5s2.916,-6.5 6.5,-6.5s6.5,2.916 6.5,6.5s-2.916,6.5 -6.5,6.5z"/>
  <path id="svg_2" d="m3.012,11.988l6.283,-2.693l2.693,-6.283l-6.283,2.693l-2.693,6.283zm3.243,-5.026l1.784,1.784l-3.122,1.338l1.338,-3.122zm2.49,1.076l-1.783,-1.783l3.122,-1.338l-1.339,3.121z"/>
  <path d="m4.99349,9.918348c0,0.021702 0.015029,-0.025738 0.043403,-0.065104c0.017945,-0.024898 0.084151,-0.066537 0.108507,-0.108507c0.039274,-0.067676 0.086805,-0.108507 0.108507,-0.130209c0.043403,-0.043403 0.058432,-0.090842 0.086806,-0.130208c0.03589,-0.049794 0.086805,-0.086805 0.108507,-0.108507c0.043403,-0.043403 0.081683,-0.05998 0.130208,-0.108506c0.048526,-0.048526 0.052493,-0.139298 0.086805,-0.173612c0.034313,-0.034313 0.006357,-0.071461 0.021701,-0.086805c0.015345,-0.015346 0.025831,-0.040832 0.065104,-0.108507c0.024356,-0.04197 0.026793,-0.068408 0.043403,-0.108507c0.011744,-0.028354 0.048268,-0.062995 0.065104,-0.108506c0.031044,-0.08392 0.054111,-0.127573 0.065104,-0.195313c0.010428,-0.064263 0.01173,-0.087967 0.021702,-0.130209c0.011149,-0.047228 0.005091,-0.068407 0.021701,-0.108507c0.011744,-0.028354 0.021701,-0.065104 0.021701,-0.086805c0,-0.043403 0.021701,-0.065104 0.021701,-0.108507c0,-0.021701 0,-0.043403 0,-0.065104c0,-0.021702 0.021701,-0.021702 0.021701,-0.065104c0,-0.043403 0.021701,-0.065104 0.021701,-0.086805c0,-0.043403 -0.008305,-0.066756 0,-0.086806c0.011744,-0.028354 0.021701,-0.043403 0.021701,-0.065104c0,-0.021701 0,-0.065104 0,-0.086805c0,-0.021702 0.021701,-0.065104 0.021701,-0.086806c0,-0.021701 0.013396,-0.045054 0.021701,-0.065104c0.011745,-0.028355 0.00058,-0.060119 0.021702,-0.065104c0.047228,-0.011149 0.021701,0.086806 0.043403,0.130208c0.021701,0.043403 0.033431,0.087967 0.043403,0.130208c0.011149,0.047227 0.05336,0.058451 0.065104,0.086805c0.008305,0.02005 0.025458,0.018505 0.043403,0.043403c0.028374,0.039366 0.043403,0.065104 0.065104,0.086806c0.043403,0.043403 0.075061,0.058451 0.086805,0.086806c0.008305,0.020049 0.021701,0.043403 0.043403,0.065104c0.021702,0.021702 0.05336,0.058452 0.065104,0.086806c0.008305,0.020049 0.015049,0.076848 0.043403,0.065104c0.060148,-0.024915 0,-0.130208 0,-0.15191c0,-0.021701 -0.032254,-0.039578 -0.043403,-0.086805c-0.014958,-0.063363 -0.041615,-0.095201 -0.065104,-0.15191c-0.008305,-0.02005 -0.009957,-0.03675 -0.021701,-0.065104c-0.008305,-0.02005 -0.00909,-0.074193 -0.043403,-0.108507c-0.034313,-0.034313 -0.05336,-0.058452 -0.065104,-0.086806c-0.008305,-0.02005 -0.031658,-0.03675 -0.043403,-0.065104c-0.008305,-0.02005 0,-0.043403 0,0.021701c0,0.086805 0.009731,0.169394 0.043403,0.260417c0.031044,0.08392 0.065104,0.173611 0.108507,0.238715c0.043403,0.065104 0.065104,0.130209 0.086806,0.15191c0.043403,0.043403 0.0589,0.069698 0.108507,0.130208c0.038915,0.047469 0.068408,0.091897 0.108507,0.108507c0.028355,0.011744 0.030791,0.052492 0.065104,0.086805c0.034313,0.034313 0.061908,0.068861 0.086806,0.086806c0.039366,0.028374 0.065104,0.065104 0.086805,0.086805c0.021701,0.021701 0.047159,0.018505 0.065104,0.043403c0.028373,0.039366 0.030791,0.052493 0.065104,0.086805c0.034313,0.034312 0.043403,0.065104 0.065104,0.065104c0.021701,0 0.065104,0 0.086806,0c0.021701,0 0.056799,-0.020049 0.065104,0c0.011744,0.028354 -0.103365,0.095064 -0.238715,0.173611c-0.083941,0.048713 -0.176497,0.055762 -0.260417,0.086806c-0.045511,0.016835 -0.085376,0.024833 -0.130208,0.043403c-0.063402,0.026262 -0.087386,0.038417 -0.108507,0.043403c-0.047227,0.011148 -0.066756,0.013396 -0.086805,0.021701c-0.028355,0.011744 -0.066807,0.01714 -0.130208,0.043403c-0.044832,0.01857 -0.061279,0.032254 -0.108507,0.043404c-0.021121,0.004986 -0.036988,-0.000317 -0.043403,-0.065104c-0.010904,-0.110118 -0.054216,-0.25907 -0.065104,-0.390625c-0.01074,-0.129765 -0.032515,-0.25907 -0.043403,-0.390625c-0.00895,-0.108137 0.005178,-0.217984 -0.021701,-0.347222c-0.01822,-0.087602 -0.038843,-0.175313 -0.065104,-0.238715c-0.01857,-0.044832 -0.005092,-0.09011 -0.021701,-0.130208c-0.011744,-0.028354 -0.032254,-0.082981 -0.043403,-0.130208c-0.009972,-0.042242 -0.009957,-0.058451 -0.021701,-0.086805c-0.008305,-0.02005 -0.021701,-0.043403 -0.021701,-0.065104l0.021701,-0.021701" id="svg_4" stroke-width="1.5" stroke="#000" fill="none"/>
  <path d="m5.818142,9.180501c-0.021701,0.021702 -0.032989,0.050426 -0.065104,0.086806c-0.051783,0.05866 -0.106474,0.089049 -0.130208,0.108506c-0.060511,0.049606 -0.115251,0.098415 -0.15191,0.130209c-0.051844,0.044964 -0.108507,0.043403 -0.15191,0.086805c-0.021701,0.021701 -0.035098,0.023353 -0.043403,0.043403c-0.011744,0.028355 -0.028058,0.028057 -0.043403,0.043403c-0.015346,0.015346 -0.021701,0.043403 -0.021701,0.065104l-0.021701,0.021701l0,0.021702l-0.021701,0" id="svg_5" stroke-width="1.5" stroke="#000" fill="none"/>
  <path d="m5.687934,9.419216c-0.021701,0.021702 -0.065104,0.065104 -0.130208,0.108507c-0.065104,0.043403 -0.102115,0.094318 -0.15191,0.130209c-0.039366,0.028374 -0.06914,0.058432 -0.108507,0.086805c-0.024897,0.017944 -0.04744,0.058432 -0.086805,0.086805c-0.024898,0.017945 -0.065104,0.043403 -0.086806,0.065104c-0.021701,0.021701 -0.045054,0.013396 -0.065104,0.021701c-0.028355,0.011744 -0.043403,0.043403 -0.065104,0.065104l-0.021701,0.021701l-0.021701,0l0,0.021702" id="svg_6" stroke-width="1.5" stroke="#000" fill="none"/>
 </g>
</svg>