<svg width="20" height="18" xmlns="http://www.w3.org/2000/svg">

 <g>
  <title>background</title>
  <rect fill="none" id="canvas_background" height="20" width="22" y="-1" x="-1"/>
 </g>
 <g>
  <title>Layer 1</title>
  <path id="svg_1" d="m17.665922,3.063209l-2.323,0l-0.714,-2.015c-0.222,-0.666 -0.843,-0.985 -1.545,-0.985l-6.034,0c-0.702,0 -1.323,0.319 -1.545,0.985l-0.714,2.015l-2.323,0c-1.496,0 -2.401,1.247 -2.401,2.743l0,9.77c0,1.496 0.905,2.487 2.401,2.487l15.197,0c1.497,0 2.402,-0.991 2.402,-2.487l0,-9.77c0,-1.496 -0.905,-2.743 -2.401,-2.743zm1.401,12.513c0,0.898 -0.503,1.487 -1.401,1.487l-15.198,0c-0.898,0 -1.401,-0.589 -1.401,-1.487l0,-9.77c0,-0.897 0.503,-1.743 1.401,-1.743l2.714,0c0.234,0 0.441,-0.092 0.515,-0.313l0.838,-2.415c0.074,-0.222 0.281,-0.272 0.515,-0.272l6.034,0c0.234,0 0.441,0.078 0.515,0.301l0.838,2.421c0.074,0.221 0.281,0.278 0.515,0.278l2.714,0c0.898,0 1.401,0.846 1.401,1.743l0,9.77z"/>
  <path id="svg_2" d="m10.066922,4.721209c-2.993,0 -5.428,2.435 -5.428,5.428s2.435,5.427 5.428,5.427s5.428,-2.435 5.428,-5.428s-2.435,-5.427 -5.428,-5.427zm0,9.77c-2.394,0 -4.342,-1.948 -4.342,-4.342s1.948,-4.343 4.342,-4.343s4.342,1.948 4.342,4.342s-1.948,4.343 -4.342,4.343z"/>
 </g>
</svg>