<svg width="88" height="88" xmlns="http://www.w3.org/2000/svg">

 <g>
  <title>background</title>
  <rect fill="none" id="canvas_background" height="90" width="90" y="-1" x="-1"/>
 </g>
 <g>
  <title>Layer 1</title>
  <path id="svg_1" d="m55.276368,88.016046c-0.772,0 -1.479,-0.445 -1.81,-1.148l-16.863,-35.84l-35.103,-16.135c-0.734,-0.337 -1.193,-1.083 -1.164,-1.891c0.03,-0.808 0.543,-1.518 1.3,-1.8l83.312,-31.107c0.729,-0.271 1.552,-0.096 2.105,0.452c0.555,0.548 0.739,1.369 0.475,2.102l-30.371,84.047c-0.274,0.761 -0.98,1.28 -1.788,1.318c-0.032,0.001 -0.063,0.002 -0.093,0.002zm-47.736,-54.749l31.396,14.432c0.429,0.197 0.774,0.539 0.975,0.965l15.122,32.139l27.264,-75.448l-74.757,27.912z"/>
  <path id="svg_2" d="m38.102368,51.515046c-0.512,0 -1.023,-0.195 -1.414,-0.586c-0.781,-0.78 -0.781,-2.047 0,-2.828l47.545,-47.546c0.781,-0.781 2.047,-0.781 2.828,0c0.781,0.781 0.781,2.047 0,2.828l-47.545,47.546c-0.391,0.391 -0.902,0.586 -1.414,0.586z"/>
 </g>
</svg>