<svg width="23" height="22" xmlns="http://www.w3.org/2000/svg">

 <g>
  <title>background</title>
  <rect fill="none" id="canvas_background" height="24" width="25" y="-1" x="-1"/>
 </g>
 <g>
  <title>Layer 1</title>
  <path id="svg_2" d="m18.179557,21.361718c-0.1,0 -0.2,0 -0.3,-0.1l-6.4,-4.1l-6.5,4.1c-0.2,0.1 -0.4,0.1 -0.6,0c-0.2,-0.1 -0.2,-0.3 -0.2,-0.5l2,-7.3l-6,-4.7c-0.1,-0.2 -0.1,-0.4 -0.1,-0.6c0.1,-0.2 0.2,-0.3 0.5,-0.3l7.7,-0.4l2.7,-7.1c0.1,-0.2 0.3,-0.3 0.5,-0.3l0,0c0.2,0 0.4,0.1 0.5,0.3l2.7,7.1l7.7,0.4c0.2,0 0.4,0.1 0.5,0.3c0.1,0.2 0,0.4 -0.2,0.5l-6,4.7l2,7.3c0.1,0.2 0,0.4 -0.2,0.5c-0.1,0.1 -0.2,0.2 -0.3,0.2zm-16.2,-12.7l5.2,4.1c0.2,0.1 0.2,0.3 0.2,0.5l-1.8,6.4l5.6,-3.6c0.2,-0.1 0.4,-0.1 0.5,0l5.6,3.6l-1.8,-6.4c-0.1,-0.2 0,-0.4 0.2,-0.5l5.2,-4.1l-6.7,-0.3c-0.2,0 -0.4,-0.1 -0.4,-0.3l-2.3,-6.2l-2.4,6.2c-0.1,0.2 -0.2,0.3 -0.4,0.3l-6.7,0.3z"/>
 </g>
</svg>