<svg width="26" height="29.999999999999996" xmlns="http://www.w3.org/2000/svg">
 <title/>

 <g>
  <title>background</title>
  <rect fill="none" id="canvas_background" height="32" width="28" y="-1" x="-1"/>
 </g>
 <g>
  <title>Layer 1</title>
  <path fill="#ffffff" id="svg_1" d="m21.947037,4.074074l-6.49,0l2.29,-2.29a1,1 0 1 0 -1.42,-1.42l-3.29,3.3l-3.29,-3.3a1,1 0 0 0 -1.42,1.42l2.29,2.29l-6.49,0a4.1,4.1 0 0 0 -4.09,4.09l0,17.82a4.1,4.1 0 0 0 4.09,4.09l17.82,0a4.1,4.1 0 0 0 4.09,-4.09l0,-17.82a4.1,4.1 0 0 0 -4.09,-4.09zm2.09,21.91a2.1,2.1 0 0 1 -2.09,2.09l-17.82,0a2.1,2.1 0 0 1 -2.09,-2.09l0,-17.82a2.1,2.1 0 0 1 2.09,-2.09l17.82,0a2.1,2.1 0 0 1 2.09,2.09l0,17.82z"/>
  <path fill="#ffffff" id="svg_2" d="m13.037037,20.074074a1,1 0 0 1 -0.53,-0.15a1,1 0 0 1 -0.47,-0.85l0,-2.56l-6.65,2.5a1,1 0 0 1 -0.7,-1.88l8,-3a1,1 0 0 1 1.35,0.94l0,2.38l6.55,-3.27a1,1 0 1 1 0.9,1.78l-8,4a1,1 0 0 1 -0.45,0.11z"/>
 </g>
</svg>